<svg width="21" height="21" viewBox="0 0 21 21" fill="none" xmlns="http://www.w3.org/2000/svg">
<path d="M14.4375 12.75H13.5488L13.2338 12.4462C14.3363 11.1637 15 9.49875 15 7.6875C15 3.64875 11.7262 0.375 7.6875 0.375C3.64875 0.375 0.375 3.64875 0.375 7.6875C0.375 11.7262 3.64875 15 7.6875 15C9.49875 15 11.1637 14.3363 12.4462 13.2338L12.75 13.5488V14.4375L18.375 20.0512L20.0512 18.375L14.4375 12.75V12.75ZM7.6875 12.75C4.88625 12.75 2.625 10.4888 2.625 7.6875C2.625 4.88625 4.88625 2.625 7.6875 2.625C10.4888 2.625 12.75 4.88625 12.75 7.6875C12.75 10.4888 10.4888 12.75 7.6875 12.75Z" fill="#8074FF"/>
</svg>
